<svg width="78" height="42" viewBox="0 0 78 42" fill="none" xmlns="http://www.w3.org/2000/svg">
<path d="M40.4976 29.2543L4.46167 2L40.4976 2L75.4464 2L75.4464 3.47452L40.4976 29.2543Z" fill="#3532F8" fill-opacity="0.5"/>
<rect x="2" y="2.99998" width="74" height="37" rx="4" stroke="url(#paint0_angular_106_42)" stroke-width="4"/>
<line x1="3.05587" y1="3.30141" x2="40.0559" y2="26.3014" stroke="#3532F8" stroke-opacity="0.7" stroke-width="4"/>
<line x1="76.5153" y1="3.72519" x2="40.0988" y2="27.6711" stroke="#DF2F2F" stroke-opacity="0.6" stroke-width="4"/>
<path d="M31.18 30.18C30.47 30.18 29.815 30.05 29.215 29.79C28.625 29.52 28.14 29.14 27.76 28.65L29.11 27.03C29.4 27.41 29.705 27.7 30.025 27.9C30.345 28.09 30.69 28.185 31.06 28.185C32.05 28.185 32.545 27.605 32.545 26.445V21.45H28.855V19.5H34.96V26.31C34.96 27.61 34.64 28.58 34 29.22C33.36 29.86 32.42 30.18 31.18 30.18ZM39.3595 30V21.48H35.9995V19.5H45.1495V21.48H41.7895V30H39.3595ZM46.4569 30V19.5H48.8869V30H46.4569Z" fill="#2B2929"/>
<path d="M33.68 13.406C33.172 13.406 32.918 13.584 32.918 13.94C32.918 14.124 32.978 14.256 33.098 14.336C33.218 14.412 33.482 14.508 33.89 14.624C34.302 14.736 34.592 14.872 34.76 15.032C34.928 15.188 35.012 15.436 35.012 15.776C35.012 16.208 34.888 16.532 34.64 16.748C34.396 16.96 34.062 17.066 33.638 17.066C33.298 17.066 32.922 17.026 32.51 16.946L32.294 16.904L32.36 16.37C32.9 16.442 33.312 16.478 33.596 16.478C34.092 16.478 34.34 16.258 34.34 15.818C34.34 15.646 34.284 15.52 34.172 15.44C34.06 15.356 33.808 15.266 33.416 15.17C33.024 15.07 32.732 14.934 32.54 14.762C32.348 14.59 32.252 14.318 32.252 13.946C32.252 13.574 32.372 13.294 32.612 13.106C32.856 12.914 33.192 12.818 33.62 12.818C33.928 12.818 34.292 12.854 34.712 12.926L34.922 12.962L34.868 13.502C34.308 13.438 33.912 13.406 33.68 13.406ZM37.4718 14H38.1198V17H37.4718V16.814C37.1798 16.982 36.9098 17.066 36.6618 17.066C36.2498 17.066 35.9738 16.956 35.8338 16.736C35.6938 16.512 35.6238 16.122 35.6238 15.566V14H36.2778V15.572C36.2778 15.932 36.3078 16.174 36.3678 16.298C36.4278 16.422 36.5678 16.484 36.7878 16.484C37.0038 16.484 37.2018 16.444 37.3818 16.364L37.4718 16.328V14ZM38.9116 17V14H39.5596V14.36C39.8996 14.14 40.2396 13.998 40.5796 13.934V14.588C40.2356 14.656 39.9416 14.744 39.6976 14.852L39.5656 14.906V17H38.9116ZM43.2996 14.924V16.292C43.3036 16.38 43.3256 16.446 43.3656 16.49C43.4096 16.53 43.4756 16.556 43.5636 16.568L43.5456 17.066C43.2016 17.066 42.9356 16.992 42.7476 16.844C42.4276 16.992 42.1056 17.066 41.7816 17.066C41.1856 17.066 40.8876 16.748 40.8876 16.112C40.8876 15.808 40.9676 15.588 41.1276 15.452C41.2916 15.316 41.5416 15.234 41.8776 15.206L42.6516 15.14V14.924C42.6516 14.764 42.6156 14.652 42.5436 14.588C42.4756 14.524 42.3736 14.492 42.2376 14.492C41.9816 14.492 41.6616 14.508 41.2776 14.54L41.0856 14.552L41.0616 14.09C41.4976 13.986 41.8976 13.934 42.2616 13.934C42.6296 13.934 42.8936 14.014 43.0536 14.174C43.2176 14.33 43.2996 14.58 43.2996 14.924ZM41.9556 15.668C41.6796 15.692 41.5416 15.842 41.5416 16.118C41.5416 16.394 41.6636 16.532 41.9076 16.532C42.1076 16.532 42.3196 16.5 42.5436 16.436L42.6516 16.4V15.602L41.9556 15.668ZM45.7346 14.558H44.9066V15.878C44.9066 16.122 44.9246 16.284 44.9606 16.364C44.9966 16.444 45.0886 16.484 45.2366 16.484L45.7286 16.466L45.7586 16.988C45.4906 17.04 45.2866 17.066 45.1466 17.066C44.8066 17.066 44.5726 16.988 44.4446 16.832C44.3206 16.676 44.2586 16.382 44.2586 15.95V14.558H43.8746V14H44.2586V13.13H44.9066V14H45.7346V14.558Z" fill="#2B2929"/>
<defs>
<radialGradient id="paint0_angular_106_42" cx="0" cy="0" r="1" gradientUnits="userSpaceOnUse" gradientTransform="translate(39 21.5) rotate(90) scale(20.5 39)">
<stop stop-color="#3532F8" stop-opacity="0.7"/>
<stop offset="1" stop-color="#DF2F2F" stop-opacity="0.75"/>
</radialGradient>
</defs>
</svg>
